#!OML:ASF I:\Actors\actors\Patient Classification 1\Patient 1\Session 1\Subject1.ASF
:FULLY-SPECIFIED
:DEGREES
1412
root -0.626256 17.6092 7.46368 6.83168 -3.09184 -7.4723
lowerback 0.499254 0.0549604 5.30153
upperback -11.895 0.723656 2.50396
thorax -13.1802 -0.0527519 -0.29226
lowerneck -12.6442 -2.58965 -0.785293
upperneck 37.6469 -5.27573 3.56977
head 15.4787 -1.89623 0.773562
rclavicle -1.90274e-014 1.58903e-014
rhumerus 51.8738 -13.7396 -113.575
rradius 16.7099
rwrist 50.6998
rhand -9.8374 -31.6335
rfingers 7.12502
rthumb 16.1402 -60.9815
lclavicle -1.90274e-014 1.58903e-014
lhumerus 61.135 24.797 137.248
lradius 9.75328
lwrist -52.4716
lhand -41.1609 -25.413
lfingers 7.12502
lthumb -14.0867 4.08958
rfemur -0.161008 22.9004 27.7015
rtibia 2.05253
rfoot -12.2678 -24.466
rtoes 5.82555
lfemur 3.54779 -34.5636 -12.7577
ltibia -2.55382
lfoot -10.482 41.8508
ltoes 0.521392
1413
root -0.626119 17.6091 7.46284 6.84259 -3.12667 -7.48482
lowerback 0.490127 0.0635893 5.29767
upperback -11.8952 0.734561 2.50706
thorax -13.1742 -0.0468014 -0.288035
lowerneck -12.6072 -2.57698 -0.74407
upperneck 37.6102 -5.25664 3.54713
head 15.4485 -1.8866 0.760053
rclavicle 2.27484e-014 -1.83006e-014
rhumerus 51.6688 -13.2172 -112.483
rradius 16.7377
rwrist 49.5789
rhand -9.78625 -31.9313
rfingers 7.12502
rthumb 16.1895 -61.2753
lclavicle 2.27484e-014 -1.83006e-014
lhumerus 61.1994 24.8734 137.426
lradius 9.86892
lwrist -52.6325
lhand -40.9731 -25.1947
lfingers 7.12502
lthumb -13.9057 4.32032
rfemur -0.177312 22.9017 27.7051
rtibia 2.04444
rfoot -12.2757 -24.4397
rtoes 5.81844
lfemur 3.56272 -34.6101 -12.7574
ltibia -2.56528
lfoot -10.4602 41.9252
ltoes 0.389111
1414
root -0.626149 17.6095 7.46043 6.8557 -3.15503 -7.53156
lowerback 0.517639 0.0687085 5.32568
upperback -11.9147 0.74772 2.51665
thorax -13.215 -0.043787 -0.293948
lowerneck -12.6047 -2.56895 -0.72484
upperneck 37.6647 -5.26537 3.5753
head 15.4762 -1.88277 0.767716
rclavicle -2.4786e-015 -6.70898e-015
rhumerus 51.6249 -13.2368 -112.352
rradius 16.7536
rwrist 49.4808
rhand -9.87079 -31.9417
rfingers 7.12502
rthumb 16.1081 -61.2922
lclavicle -2.4786e-015 -6.70898e-015
lhumerus 61.2859 24.9566 137.596
lradius 9.91154
lwrist -52.8338
lhand -40.8489 -25.2361
lfingers 7.12502
lthumb -13.7861 4.28712
rfemur -0.219115 22.8881 27.7432
rtibia 2.06726
rfoot -12.2558 -24.3944
rtoes 5.95657
lfemur 3.54116 -34.6263 -12.6889
ltibia -2.55776
lfoot -10.5266 41.9591
ltoes 0.476177
1415
root -0.626914 17.6098 7.45875 6.84037 -3.16305 -7.56758
lowerback 0.56016 0.0671726 5.33837
upperback -11.923 0.751853 2.5305
thorax -13.2519 -0.042918 -0.285887
lowerneck -12.6125 -2.57339 -0.69207
upperneck 37.7057 -5.27321 3.54387
head 15.4965 -1.88499 0.747405
rclavicle 2.004e-014 -2.80535e-014
rhumerus 51.7005 -13.5208 -112.711
rradius 16.7428
rwrist 49.906
rhand -9.90453 -31.841
rfingers 7.12502
rthumb 16.0756 -61.1942
lclavicle 2.004e-014 -2.80535e-014
lhumerus 61.3796 25.058 137.772
lradius 9.91995
lwrist -53.0697
lhand -40.8015 -25.2093
lfingers 7.12502
lthumb -13.7403 4.31706
rfemur -0.210245 22.9174 27.7959
rtibia 2.08986
rfoot -12.2502 -24.3994
rtoes 6.04343
lfemur 3.55071 -34.6125 -12.6445
ltibia -2.56261
lfoot -10.5206 41.9559
ltoes 0.449512
1416
root -0.626985 17.6102 7.4582 6.82652 -3.14831 -7.55687
lowerback 0.560361 0.0563059 5.31158
upperback -11.9137 0.735727 2.54135
thorax -13.2416 -0.0466919 -0.257512
lowerneck -12.6101 -2.55863 -0.62116
upperneck 37.6999 -5.23943 3.46283
head 15.486 -1.87178 0.705944
rclavicle 2.19284e-015 -1.58531e-014
rhumerus 51.8347 -13.773 -113.065
rradius 16.6797
rwrist 50.383
rhand -9.75405 -31.7769
rfingers 7.12502
rthumb 16.2205 -61.1183
lclavicle 2.19284e-015 -1.58531e-014
lhumerus 61.4706 25.189 137.952
lradius 9.96027
lwrist -53.2971
lhand -40.7042 -25.0963
lfingers 7.12502
lthumb -13.6465 4.43639
rfemur -0.194599 22.9331 27.7938
rtibia 2.09292
rfoot -12.2359 -24.4284
rtoes 6.01334
lfemur 3.55843 -34.587 -12.6557
ltibia -2.57537
lfoot -10.4383 41.9321
ltoes 0.316235
1417
root -0.626339 17.6107 7.4574 6.8194 -3.12278 -7.53582
lowerback 0.554946 0.115725 5.33041
upperback -11.8917 0.806529 2.44257
thorax -13.2062 -0.02065 -0.385292
lowerneck -12.6802 -2.62036 -0.447068
upperneck 37.6877 -5.37967 3.44771
head 15.4956 -1.90675 0.644085
rclavicle -9.85227e-015 1.44616e-014
rhumerus 51.9907 -14.0191 -113.043
rradius 16.6765
rwrist 50.4834
rhand -9.63901 -31.6744
rfingers 7.12502
rthumb 16.3312 -61.0068
lclavicle -9.85227e-015 1.44616e-014
lhumerus 61.3685 25.1395 138.045
lradius 10.0155
lwrist -53.4905
lhand -40.6077 -25.1442
lfingers 7.12502
lthumb -13.5536 4.39468
rfemur -0.204812 22.8871 27.7618
rtibia 2.10466
rfoot -12.2494 -24.4079
rtoes 6.03055
lfemur 3.53574 -34.5686 -12.6677
ltibia -2.56109
lfoot -10.3961 41.8944
ltoes 0.204054
1418
root -0.625976 17.6107 7.4568 6.79848 -3.11312 -7.53113
lowerback 0.573705 0.248035 5.41
upperback -11.846 0.973447 2.26054
thorax -13.1506 0.0400994 -0.649686
lowerneck -12.8409 -2.7297 -0.163849
upperneck 37.6246 -5.62129 3.43022
head 15.5008 -1.96807 0.543118
rclavicle -1.90088e-014 2.04748e-014
rhumerus 52.2222 -14.3926 -112.918
rradius 16.7181
rwrist 50.4281
rhand -9.66775 -31.572
rfingers 7.12502
rthumb 16.3036 -60.9067
lclavicle -1.90088e-014 2.04748e-014
lhumerus 60.6908 24.3886 137.055
lradius 10.0621
lwrist -52.6007
lhand -40.5612 -25.0967
lfingers 7.12502
lthumb -13.5088 4.44517
rfemur -0.190267 22.8626 27.7586
rtibia 2.11566
rfoot -12.3417 -24.3893
rtoes 6.18004
lfemur 3.54508 -34.5474 -12.6808
ltibia -2.54424
lfoot -10.3825 41.8546
ltoes 0.103088
1419
root -0.625319 17.6103 7.45644 6.78191 -3.10528 -7.54674
lowerback 0.567296 0.234889 5.44199
upperback -11.8383 0.959669 2.28534
thorax -13.1389 0.0320891 -0.638726
lowerneck -12.9064 -2.70784 -0.206568
upperneck 37.648 -5.58365 3.44584
head 15.5292 -1.9543 0.562724
rclavicle -1.28465e-014 1.51573e-014
rhumerus 52.1915 -14.3549 -112.828
rradius 16.711
rwrist 50.3901
rhand -9.69323 -31.5311
rfingers 7.12502
rthumb 16.279 -60.8677
lclavicle -1.28465e-014 1.51573e-014
lhumerus 60.2501 24.0167 136.027
lradius 10.1607
lwrist -51.557
lhand -40.5582 -25.217
lfingers 7.12502
lthumb -13.5059 4.32503
rfemur -0.172603 22.8634 27.7838
rtibia 2.11838
rfoot -12.3792 -24.409
rtoes 6.2644
lfemur 3.56 -34.5333 -12.6748
ltibia -2.52672
lfoot -10.4225 41.8134
ltoes 0.146193
1420
root -0.62536 17.61 7.45587 6.77092 -3.0923 -7.57459
lowerback 0.523798 0.0907295 5.40365
upperback -11.868 0.779909 2.4949
thorax -13.1613 -0.0365437 -0.36594
lowerneck -12.8397 -2.59229 -0.511562
upperneck 37.7416 -5.32092 3.44277
head 15.5607 -1.88784 0.661217
rclavicle 8.99501e-015 -4.34251e-014
rhumerus 51.8314 -13.7831 -112.504
rradius 16.7245
rwrist 50.0767
rhand -9.71299 -31.573
rfingers 7.12502
rthumb 16.26 -60.9112
lclavicle 8.99501e-015 -4.34251e-014
lhumerus 60.1235 24.1388 135.296
lradius 10.305
lwrist -50.715
lhand -40.5729 -25.4404
lfingers 7.12502
lthumb -13.52 4.1007
rfemur -0.159447 22.8656 27.8241
rtibia 2.11163
rfoot -12.2904 -24.4356
rtoes 6.08206
lfemur 3.55716 -34.5137 -12.6389
ltibia -2.51408
lfoot -10.4664 41.7859
ltoes 0.204797
1421
root -0.625372 17.6102 7.4548 6.77404 -3.07546 -7.60667
lowerback 0.476572 0.034088 5.42234
upperback -11.8773 0.711417 2.59733
thorax -13.1486 -0.0642219 -0.25582
lowerneck -12.8072 -2.56308 -0.653449
upperneck 37.7229 -5.20776 3.38
head 15.5408 -1.87055 0.678838
rclavicle 2.2239e-014 -1.03617e-014
rhumerus 51.6675 -13.4907 -112.294
rradius 16.7621
rwrist 49.877
rhand -9.63261 -31.638
rfingers 7.12502
rthumb 16.3374 -60.9699
lclavicle 2.2239e-014 -1.03617e-014
lhumerus 60.1222 24.2653 135.168
lradius 10.379
lwrist -50.4754
lhand -40.5304 -25.4478
lfingers 7.12502
lthumb -13.4791 4.09601
rfemur -0.15667 22.8812 27.8638
rtibia 2.09413
rfoot -12.2132 -24.4648
rtoes 5.89702
lfemur 3.53211 -34.4927 -12.582
ltibia -2.5107
lfoot -10.4738 41.7676
ltoes 0.258967
1422
root -0.624789 17.6102 7.45352 6.79035 -3.06651 -7.61786
lowerback 0.438152 0.0564533 5.47744
upperback -11.872 0.741685 2.58728
thorax -13.1172 -0.0556012 -0.301144
lowerneck -12.8583 -2.6015 -0.733108
upperneck 37.674 -5.26144 3.43586
head 15.5353 -1.89684 0.706589
rclavicle -1.40889e-014 3.60297e-014
rhumerus 51.6984 -13.5163 -112.245
rradius 16.7937
rwrist 49.8939
rhand -9.48503 -31.6566
rfingers 7.12502
rthumb 16.4795 -60.9767
lclavicle -1.40889e-014 3.60297e-014
lhumerus 60.0493 24.2156 135.131
lradius 10.4055
lwrist -50.4221
lhand -40.5872 -25.316
lfingers 7.12502
lthumb -13.5338 4.2242
rfemur -0.168525 22.9034 27.8714
rtibia 2.07713
rfoot -12.179 -24.4921
rtoes 5.82849
lfemur 3.53087 -34.5466 -12.5654
ltibia -2.53723
lfoot -10.5266 41.8077
ltoes 0.454598
